<?xml version="1.0" encoding="UTF-8" standalone="no"?>
<!-- Created with Inkscape (http://www.inkscape.org/) -->

<svg
   xmlns:dc="http://purl.org/dc/elements/1.1/"
   xmlns:cc="http://creativecommons.org/ns#"
   xmlns:rdf="http://www.w3.org/1999/02/22-rdf-syntax-ns#"
   xmlns:svg="http://www.w3.org/2000/svg"
   xmlns="http://www.w3.org/2000/svg"
   xmlns:sodipodi="http://sodipodi.sourceforge.net/DTD/sodipodi-0.dtd"
   xmlns:inkscape="http://www.inkscape.org/namespaces/inkscape"
   width="70mm"
   height="100mm"
   viewBox="0 0 70 100"
   version="1.1"
   id="svg8"
   inkscape:version="0.92.3 (2405546, 2018-03-11)"
   sodipodi:docname="logo.svg">
  <defs
     id="defs2" />
  <sodipodi:namedview
     id="base"
     pagecolor="#ffffff"
     bordercolor="#666666"
     borderopacity="1.0"
     inkscape:pageopacity="0.0"
     inkscape:pageshadow="2"
     inkscape:zoom="0.24748737"
     inkscape:cx="-713.0769"
     inkscape:cy="796.55061"
     inkscape:document-units="mm"
     inkscape:current-layer="layer1"
     showgrid="false"
     inkscape:window-width="1366"
     inkscape:window-height="713"
     inkscape:window-x="0"
     inkscape:window-y="27"
     inkscape:window-maximized="1" />
  <metadata
     id="metadata5">
    <rdf:RDF>
      <cc:Work
         rdf:about="">
        <dc:format>image/svg+xml</dc:format>
        <dc:type
           rdf:resource="http://purl.org/dc/dcmitype/StillImage" />
        <dc:title></dc:title>
      </cc:Work>
    </rdf:RDF>
  </metadata>
  <g
     inkscape:label="Layer 1"
     inkscape:groupmode="layer"
     id="layer1"
     transform="translate(0,-197)">
    <path
       style="fill:#ffffff;stroke-width:0.02616386"
       d="m 37.447644,288.15388 c 2e-4,-0.0324 0.012,-0.30023 0.026,-0.59522 0.0414,-0.87547 -0.018,-1.84181 -0.1721,-2.79954 -0.48046,-2.98583 -2.04987,-6.11451 -4.42945,-8.8303 -0.3974,-0.45355 -1.74144,-1.78946 -2.30607,-2.29211 -0.65251,-0.5809 -1.841004,-1.60649 -6.318574,-5.45253 -6.872882,-5.90352 -6.973175,-5.99312 -7.524674,-6.72217 -1.294579,-1.71136 -1.86226,-4.39605 -1.513487,-7.15761 0.107995,-0.85509 0.162041,-1.10321 1.367791,-6.27933 0.179336,-0.76987 0.399017,-1.72354 0.488177,-2.11927 0.294407,-1.30668 0.460753,-1.7833 0.800733,-2.29425 0.268369,-0.40334 0.560703,-0.6441 0.956789,-0.78803 0.178623,-0.0649 0.221771,-0.0697 0.623605,-0.07 0.356227,-3.9e-4 0.479017,0.0103 0.702335,0.0602 0.385073,0.0861 0.751099,0.21832 1.134668,0.41 0.6254,0.31256 0.739604,0.39246 3.997536,2.79701 4.195381,3.09645 4.992611,3.6747 11.559431,8.38446 2.12788,1.52613 2.92994,2.11495 2.93366,2.15374 0.003,0.0319 -0.66526,0.57906 -1.04827,0.85827 -0.96531,0.7037 -1.81884,1.22968 -2.78305,1.71502 -1.29103,0.64986 -2.16468,0.95575 -3.47979,1.2184 -0.7173,0.14326 -1.11921,0.11332 -1.596,-0.11889 -0.57678,-0.2809 -2.616641,-1.79913 -3.989987,-2.96968 -0.882482,-0.75217 -1.391336,-1.2347 -5.075787,-4.81318 -0.639811,-0.62141 -1.246956,-1.18777 -1.386684,-1.29354 -0.443735,-0.33588 -0.913231,-0.53667 -1.395814,-0.59695 -0.909437,-0.1136 -1.577517,0.55853 -1.525872,1.53511 0.03707,0.70101 0.394818,1.44029 1.011713,2.0907 0.295797,0.31187 6.711666,6.18969 9.170443,8.40139 1.069071,0.96165 1.613807,1.43981 3.322808,2.9167 1.80058,1.55604 2.62113,2.27967 3.16583,2.79189 2.49909,2.3501 4.07797,4.6577 4.9193,7.18981 0.36677,1.10384 0.55694,2.01587 0.68468,3.28356 0.0647,0.64206 0.0644,2.31537 -4.1e-4,2.91727 -0.24916,2.31023 -0.84264,4.08449 -2.05401,6.14077 -0.12465,0.21159 -0.23547,0.38526 -0.24626,0.38592 -0.0108,8.1e-4 -0.0194,-0.0253 -0.019,-0.0577 z M 20.008857,262.96535 c 2.127752,-0.14742 2.613051,-0.25623 2.804805,-0.62889 0.105827,-0.20567 0.122971,-0.39537 0.08913,-0.9863 -0.06605,-1.1535 -0.20938,-2.29319 -0.32014,-2.54558 -0.131781,-0.30029 -0.305254,-0.38199 -0.92152,-0.43403 -0.397446,-0.0335 -0.520526,-0.0332 -1.076676,0.003 -1.160367,0.0752 -1.565528,0.13301 -1.813132,0.25847 -0.168243,0.0853 -0.325089,0.26152 -0.400047,0.44958 -0.05754,0.14434 -0.06161,0.18858 -0.05999,0.65197 0.0015,0.42096 0.02254,0.67947 0.137535,1.68757 0.174379,1.5287 0.167991,1.4897 0.256621,1.5668 0.06712,0.0584 0.086,0.0614 0.295099,0.0472 0.122864,-0.008 0.576601,-0.0397 1.008306,-0.0696 z m 20.708697,-8.12326 c -1.69784,-0.22182 -3.2673,-1.07733 -6.69795,-3.651 -4.800671,-3.60144 -7.678367,-5.66768 -10.323172,-7.41221 -0.750132,-0.49479 -1.086052,-0.7403 -1.38931,-1.01536 -0.54465,-0.49401 -0.952141,-1.07438 -1.13712,-1.61954 -0.07483,-0.22056 -0.08457,-0.28246 -0.08638,-0.54944 -0.0017,-0.24927 0.0082,-0.33062 0.05787,-0.47423 0.114593,-0.33153 0.407737,-0.73466 0.711412,-0.97833 0.297599,-0.2388 1.288369,-0.78282 2.334088,-1.28163 1.588893,-0.75791 1.755652,-0.85548 2.166833,-1.2679 0.136836,-0.13725 0.378197,-0.42026 0.536361,-0.62892 l 0.287568,-0.37937 v -0.17098 c 0,-0.15258 -0.01441,-0.20044 -0.133887,-0.44479 -0.222781,-0.4556 -0.565016,-0.89101 -1.001393,-1.27404 -0.123882,-0.10875 -1.120045,-0.86912 -2.213695,-1.68973 -2.370166,-1.77843 -3.277128,-2.46943 -3.658497,-2.78735 -0.739657,-0.61658 -1.529901,-1.39445 -1.765823,-1.73816 -0.186938,-0.27235 -0.357642,-0.6401 -0.422188,-0.90954 -0.187135,-0.78116 -0.01123,-1.63554 0.466884,-2.26777 0.215711,-0.28524 0.942496,-1.01442 1.279836,-1.28405 1.198629,-0.95805 2.686049,-1.63027 4.149539,-1.87531 0.658061,-0.11019 1.019403,-0.10985 1.508681,0.001 0.577294,0.13131 0.700406,0.59521 0.346595,1.30603 -0.114691,0.23043 -0.181705,0.3185 -0.418336,0.54982 -0.256901,0.25113 -0.329641,0.40892 -0.343582,0.74529 -0.01973,0.47604 0.147622,0.94648 0.454668,1.27812 0.113819,0.12294 0.436352,0.37687 1.036701,0.8162 6.377097,4.66674 6.732837,4.93282 7.151997,5.34929 0.38295,0.38051 0.60827,0.82387 0.65387,1.28665 0.0353,0.3579 -0.0908,0.68998 -0.35382,0.93184 -0.49647,0.45657 -1.22728,0.86242 -2.81297,1.56217 -1.3784,0.60828 -2.011851,0.9634 -2.605499,1.4607 -0.573828,0.48068 -0.758429,0.81029 -0.721753,1.28869 0.0695,0.90658 0.987128,1.65549 1.813862,1.48035 0.1962,-0.0416 0.97843,-0.38693 3.69121,-1.62973 2.50325,-1.14681 3.08083,-1.37863 4.03609,-1.61992 0.64308,-0.16244 0.79371,-0.18147 1.43902,-0.18178 0.6526,-3.9e-4 0.9367,0.0394 1.42141,0.19867 0.3004,0.0987 0.80263,0.34194 1.07724,0.52171 0.22364,0.14641 2.14217,1.59045 5.7168,4.30293 5.30174,4.02303 5.09201,3.85999 5.65139,4.39337 0.48273,0.46028 0.69962,0.73654 0.91587,1.16652 0.2221,0.44163 0.23535,0.49723 0.23532,0.98807 -2e-5,0.43327 -8.1e-4,0.43933 -0.0796,0.60586 -0.18496,0.39096 -0.48847,0.74536 -0.90531,1.05711 -0.11867,0.0888 -0.44894,0.30777 -0.73393,0.48672 -0.28498,0.17895 -1.2599,0.81589 -2.16648,1.41542 -2.71413,1.79487 -3.44491,2.23979 -4.74874,2.89118 -1.16579,0.58241 -1.94458,0.86004 -2.8257,1.00729 -0.425,0.071 -1.2071,0.0905 -1.59599,0.0397 z m 3.50127,-5.01004 c 0.23168,-0.0668 0.51197,-0.20409 0.72484,-0.35506 0.20323,-0.14414 0.5015,-0.4606 0.56415,-0.59857 0.0591,-0.13019 0.064,-0.3246 0.0112,-0.45082 -0.0213,-0.0511 -0.0571,-0.20083 -0.0795,-0.33275 -0.0695,-0.40951 -0.17327,-0.68163 -0.34919,-0.91566 -0.11144,-0.14825 -0.4763,-0.42348 -5.22311,-3.93998 -2.28404,-1.69204 -3.39233,-2.49752 -3.5452,-2.57657 -0.95663,-0.49469 -2.0999,-0.39144 -3.51904,0.3178 -0.30931,0.15458 -0.95206,0.49616 -0.97924,0.52041 -0.0147,0.0131 -0.30593,-0.20811 3.0233,2.29721 3.47243,2.6131 5.25442,3.95791 6.60309,4.98313 0.53963,0.41022 1.05729,0.79044 1.15036,0.84494 0.16954,0.0993 0.46536,0.21015 0.68282,0.25591 0.19337,0.0407 0.71822,0.0126 0.9355,-0.05 z m -24.36614,-12.12371 c -0.05199,-0.0793 -0.116813,-0.36126 -0.193649,-0.84215 -0.09635,-0.60302 -0.136165,-1.1076 -0.152273,-1.92959 -0.0087,-0.44249 -0.01698,-0.8045 -0.01848,-0.80445 -0.0015,0 -0.124978,0.0238 -0.274416,0.0528 -0.403979,0.0784 -0.725621,0.12303 -1.206552,0.16731 -0.630343,0.058 -2.220126,0.1508 -2.276681,0.13285 -0.06807,-0.0216 -0.119731,-0.17892 -0.195096,-0.59415 -0.152955,-0.84271 -0.206844,-1.47994 -0.208611,-2.46688 -0.0015,-0.8724 -0.006,-0.84737 0.192589,-1.09641 0.201608,-0.25287 0.361563,-0.31386 1.03453,-0.39448 1.269606,-0.15209 2.403753,-0.1423 2.73112,0.0236 0.367974,0.18646 0.43194,0.45838 0.592596,2.51908 0.03612,0.46337 0.06568,0.8469 0.06568,0.8523 0,0.005 0.158057,-0.0172 0.351237,-0.0503 1.097248,-0.18779 2.760534,-0.22124 3.119007,-0.0627 0.294933,0.13042 0.383288,0.29601 0.467626,0.87644 0.123731,0.85152 0.179626,1.53339 0.18133,2.21205 0.0015,0.63582 0.0012,0.64205 -0.06454,0.76955 -0.124329,0.24157 -0.311041,0.33822 -0.835982,0.43275 -0.584726,0.10529 -1.684281,0.20251 -2.868814,0.25368 l -0.39581,0.0171 z m 12.01003,-0.69562 c -0.008,-0.0129 0.36314,-0.43245 0.82477,-0.93224 1.17867,-1.27613 1.4203,-1.56344 1.79238,-2.13132 0.35432,-0.54078 0.56212,-1.02453 0.65195,-1.51775 0.0673,-0.36933 0.0906,-1.6998 0.17415,-9.91609 0.0286,-2.81328 0.0273,-3.29176 -0.0131,-4.77491 -0.0849,-3.11915 -0.0558,-4.26466 0.1429,-5.62523 0.35199,-2.41033 1.30533,-4.57861 2.79532,-6.35769 1.10006,-1.31348 2.61305,-2.48232 4.31888,-3.33649 1.06349,-0.53254 2.22564,-0.91632 3.44716,-1.13837 0.58959,-0.10718 0.58995,-0.11929 -0.0112,0.38009 -1.50143,1.24729 -2.48836,2.48418 -3.34023,4.18622 -0.90479,1.80777 -1.46031,3.77224 -1.61292,5.70372 -0.0732,0.92627 -0.0555,5.44225 0.0376,9.57597 0.0206,0.91377 0.0439,2.20888 0.0519,2.87803 0.008,0.66914 0.0279,1.92892 0.0442,2.79953 0.0323,1.71943 0.0254,1.8953 -0.0981,2.51173 -0.39818,1.98839 -2.00802,3.99722 -4.22687,5.27449 -0.19224,0.11066 -0.75573,0.39832 -1.25219,0.63924 -0.49645,0.24092 -1.53083,0.74551 -2.2986,1.12132 -0.76777,0.3758 -1.39992,0.68328 -1.40476,0.68328 -0.005,0 -0.0153,-0.0106 -0.0234,-0.0235 z"
       id="path826"
       inkscape:connector-curvature="0" />
  </g>
</svg>
